<svg width="220" height="16" viewBox="0 0 220 16" fill="none" xmlns="http://www.w3.org/2000/svg">
<path fill-rule="evenodd" clip-rule="evenodd" d="M1.59401 0.766113C2.24101 0.766113 2.76701 1.29211 2.76701 1.94011C2.76701 2.58811 2.24101 3.11411 1.59401 3.11411C0.946006 3.11411 0.421005 2.58811 0.421005 1.94011C0.421005 1.29211 0.946006 0.766113 1.59401 0.766113ZM52.088 10.1651C52.735 10.1651 53.261 10.6901 53.261 11.3391C53.261 11.9871 52.735 12.5131 52.088 12.5131C51.44 12.5131 50.914 11.9871 50.914 11.3391C50.914 10.6891 51.44 10.1651 52.088 10.1651ZM66.902 7.40611C67.018 7.53311 67.077 7.69111 67.077 7.87911C67.077 8.12411 66.987 8.33911 66.81 8.52811L61.793 14.0311H66.08C66.302 14.0311 66.473 14.0871 66.595 14.1981C66.716 14.3091 66.778 14.4581 66.778 14.6471C66.778 14.8681 66.711 15.0371 66.578 15.1541C66.446 15.2701 66.251 15.3281 65.997 15.3281H60.216C60.003 15.3281 59.84 15.2681 59.725 15.1451C59.609 15.0251 59.551 14.8681 59.551 14.6801C59.551 14.4591 59.639 14.2541 59.816 14.0651L64.851 8.51211H60.846C60.624 8.51211 60.453 8.45611 60.331 8.34511C60.211 8.23411 60.149 8.08511 60.149 7.89611C60.149 7.44111 60.404 7.21511 60.913 7.21511H66.413C66.623 7.21511 66.786 7.27811 66.903 7.40511L66.902 7.40611ZM70.369 8.84411C69.969 9.24411 69.714 9.82411 69.604 10.5901H73.89C73.913 9.82511 73.754 9.24311 73.417 8.84411C73.079 8.44411 72.6 8.24611 71.98 8.24611C71.304 8.24611 70.767 8.44511 70.369 8.84411ZM75.179 11.3791C75.061 11.4961 74.905 11.5541 74.704 11.5541H69.537C69.549 12.3741 69.759 13.0091 70.169 13.4591C70.579 13.9071 71.171 14.1321 71.946 14.1321C72.721 14.1321 73.441 13.9101 74.106 13.4661C74.228 13.3881 74.35 13.3501 74.472 13.3501C74.627 13.3501 74.754 13.4111 74.853 13.5331C74.953 13.6551 75.003 13.7981 75.003 13.9651C75.003 14.2211 74.893 14.4361 74.672 14.6141C74.372 14.8571 73.96 15.0571 73.434 15.2121C72.907 15.3681 72.379 15.4451 71.847 15.4451C71.049 15.4451 70.351 15.2841 69.754 14.9631C69.154 14.6411 68.694 14.1811 68.366 13.5831C68.039 12.9831 67.876 12.2921 67.876 11.5051C67.876 10.6281 68.044 9.85011 68.383 9.16811C68.72 8.48611 69.193 7.95811 69.803 7.58111C70.412 7.20411 71.116 7.01411 71.913 7.01411C73.021 7.01411 73.871 7.34411 74.463 8.00411C75.055 8.66411 75.353 9.62011 75.353 10.8721C75.353 11.0941 75.294 11.2631 75.178 11.3791H75.179ZM82.288 7.18111C82.416 7.29211 82.48 7.45311 82.48 7.66311C82.48 8.17311 82.203 8.45011 81.649 8.49411L81.201 8.54411C80.436 8.62211 79.869 8.84411 79.497 9.20911C79.127 9.57511 78.914 10.1141 78.857 10.8231L78.542 14.6131C78.52 14.8901 78.426 15.0931 78.26 15.2201C78.093 15.3481 77.888 15.4121 77.645 15.4121C77.401 15.4121 77.205 15.3451 77.055 15.2121C76.906 15.0791 76.842 14.8801 76.865 14.6131L77.412 7.81311C77.423 7.56911 77.518 7.38111 77.695 7.24711C77.872 7.11511 78.077 7.04911 78.309 7.04911C78.531 7.04911 78.707 7.11211 78.841 7.23911C78.974 7.36711 79.035 7.55211 79.024 7.79611L78.974 8.47911C79.527 7.62511 80.403 7.15411 81.599 7.06511L81.783 7.04911C81.993 7.02711 82.162 7.07111 82.288 7.18111ZM88.456 13.2501C88.866 12.6741 89.073 11.8991 89.073 10.9221C89.073 10.0911 88.88 9.45611 88.499 9.01811C88.117 8.58111 87.57 8.36211 86.863 8.36211C86.086 8.36211 85.493 8.65011 85.083 9.22611C84.675 9.80311 84.47 10.5791 84.47 11.5541C84.47 12.3971 84.661 13.0341 85.042 13.4671C85.425 13.8981 85.975 14.1151 86.695 14.1151C87.461 14.1151 88.047 13.8261 88.456 13.2501ZM84.618 14.9631C84.032 14.6421 83.578 14.1821 83.257 13.5831C82.935 12.9831 82.775 12.2921 82.775 11.5041C82.775 10.5941 82.944 9.80411 83.282 9.12711C83.619 8.45111 84.096 7.93011 84.71 7.56411C85.325 7.19811 86.037 7.01511 86.845 7.01511C87.642 7.01511 88.335 7.17811 88.921 7.50511C89.509 7.83311 89.963 8.29311 90.284 8.88511C90.606 9.47811 90.766 10.1751 90.766 10.9721C90.766 11.8811 90.598 12.6721 90.26 13.3421C89.92 14.0121 89.445 14.5311 88.83 14.8961C88.216 15.2621 87.5 15.4451 86.68 15.4451C85.893 15.4451 85.206 15.2841 84.618 14.9631ZM99.023 8.84411C98.625 9.24411 98.37 9.82411 98.259 10.5901H102.546C102.568 9.82511 102.41 9.24311 102.072 8.84411C101.735 8.44411 101.255 8.24611 100.635 8.24611C99.959 8.24611 99.422 8.44511 99.023 8.84411ZM103.833 11.3791C103.717 11.4961 103.559 11.5541 103.359 11.5541H98.193C98.204 12.3741 98.414 13.0091 98.825 13.4591C99.233 13.9071 99.827 14.1321 100.603 14.1321C101.378 14.1321 102.096 13.9101 102.761 13.4661C102.883 13.3881 103.006 13.3501 103.127 13.3501C103.282 13.3501 103.409 13.4111 103.51 13.5331C103.609 13.6551 103.658 13.7981 103.658 13.9651C103.658 14.2211 103.548 14.4361 103.326 14.6141C103.027 14.8571 102.615 15.0571 102.089 15.2121C101.564 15.3681 101.034 15.4451 100.502 15.4451C99.704 15.4451 99.006 15.2841 98.409 14.9631C97.811 14.6411 97.347 14.1811 97.022 13.5831C96.695 12.9831 96.532 12.2921 96.532 11.5051C96.532 10.6281 96.7 9.85011 97.038 9.16811C97.377 8.48611 97.85 7.95811 98.458 7.58111C99.068 7.20411 99.771 7.01411 100.568 7.01411C101.675 7.01411 102.527 7.34411 103.119 8.00411C103.711 8.66411 104.007 9.62011 104.007 10.8721C104.007 11.0941 103.95 11.2631 103.833 11.3791ZM108.806 5.41911C108.523 5.72911 108.354 6.18911 108.299 6.79911L108.265 7.21511H109.911C110.133 7.21511 110.301 7.27011 110.417 7.38111C110.533 7.49111 110.592 7.64111 110.592 7.82911C110.592 8.28411 110.337 8.51111 109.828 8.51111H108.166L107.684 14.6131C107.673 14.8801 107.582 15.0791 107.411 15.2131C107.238 15.3451 107.037 15.4131 106.804 15.4131C106.571 15.4131 106.378 15.3451 106.222 15.2131C106.067 15.0791 105.995 14.8801 106.007 14.6131L106.488 8.51111H105.508C105.287 8.51111 105.115 8.45611 104.993 8.34511C104.87 8.23411 104.81 8.08511 104.81 7.89611C104.81 7.67511 104.876 7.50611 105.01 7.38911C105.142 7.27211 105.336 7.21511 105.59 7.21511H106.589L106.605 6.99811C106.782 4.87111 107.928 3.74011 110.043 3.60711L110.393 3.59011C110.979 3.55711 111.273 3.75111 111.273 4.17211C111.273 4.38211 111.213 4.54411 111.09 4.65411C110.968 4.76511 110.791 4.83111 110.56 4.85311L110.11 4.88611C109.523 4.93111 109.088 5.10911 108.806 5.41911ZM115.221 5.41911C114.938 5.72911 114.769 6.18911 114.713 6.79911L114.68 7.21511H116.325C116.548 7.21511 116.716 7.27011 116.832 7.38111C116.948 7.49111 117.006 7.64111 117.006 7.82911C117.006 8.28411 116.751 8.51111 116.243 8.51111H114.581L114.099 14.6131C114.088 14.8801 113.997 15.0791 113.825 15.2131C113.653 15.3451 113.451 15.4131 113.218 15.4131C112.986 15.4131 112.792 15.3451 112.637 15.2131C112.482 15.0791 112.41 14.8801 112.421 14.6131L112.903 8.51111H111.923C111.702 8.51111 111.529 8.45611 111.408 8.34511C111.285 8.23411 111.224 8.08511 111.224 7.89611C111.224 7.67511 111.291 7.50611 111.424 7.38911C111.556 7.27211 111.751 7.21511 112.006 7.21511H113.003L113.02 6.99811C113.197 4.87111 114.343 3.74011 116.458 3.60711L116.807 3.59011C117.394 3.55711 117.687 3.75111 117.687 4.17211C117.687 4.38211 117.627 4.54411 117.505 4.65411C117.382 4.76511 117.205 4.83111 116.974 4.85311L116.524 4.88611C115.938 4.93111 115.504 5.10911 115.221 5.41911ZM123.07 13.2501C123.48 12.6741 123.685 11.8991 123.685 10.9221C123.685 10.0911 123.495 9.45611 123.112 9.01811C122.73 8.58111 122.184 8.36211 121.476 8.36211C120.699 8.36211 120.108 8.65011 119.697 9.22611C119.287 9.80311 119.084 10.5791 119.084 11.5541C119.084 12.3971 119.274 13.0341 119.656 13.4671C120.039 13.8981 120.589 14.1151 121.309 14.1151C122.074 14.1151 122.659 13.8261 123.07 13.2501ZM119.232 14.9631C118.645 14.6421 118.192 14.1821 117.87 13.5831C117.55 12.9831 117.388 12.2921 117.388 11.5041C117.388 10.5941 117.558 9.80411 117.895 9.12711C118.232 8.45111 118.709 7.93011 119.325 7.56411C119.938 7.19811 120.651 7.01511 121.458 7.01511C122.256 7.01511 122.948 7.17811 123.535 7.50511C124.123 7.83311 124.575 8.29311 124.898 8.88511C125.219 9.47811 125.38 10.1751 125.38 10.9721C125.38 11.8811 125.21 12.6721 124.873 13.3421C124.535 14.0121 124.058 14.5311 123.443 14.8961C122.83 15.2621 122.113 15.4451 121.293 15.4451C120.506 15.4451 119.82 15.2841 119.233 14.9631H119.232ZM132.317 7.18111C132.445 7.29211 132.509 7.45311 132.509 7.66311C132.509 8.17311 132.231 8.45011 131.679 8.49411L131.229 8.54411C130.466 8.62211 129.898 8.84411 129.526 9.20911C129.156 9.57511 128.943 10.1141 128.887 10.8231L128.571 14.6131C128.549 14.8901 128.455 15.0931 128.29 15.2201C128.122 15.3481 127.918 15.4121 127.675 15.4121C127.43 15.4121 127.235 15.3451 127.083 15.2121C126.935 15.0791 126.871 14.8801 126.894 14.6131L127.442 7.81311C127.453 7.56911 127.547 7.38111 127.725 7.24711C127.901 7.11511 128.106 7.04911 128.338 7.04911C128.56 7.04911 128.737 7.11211 128.871 7.23911C129.003 7.36711 129.065 7.55211 129.052 7.79611L129.003 8.47911C129.556 7.62511 130.431 7.15411 131.629 7.06511L131.811 7.04911C132.021 7.02711 132.191 7.07111 132.317 7.18111ZM136.14 12.3191C136.129 12.3851 136.124 12.4851 136.124 12.6191C136.124 13.1171 136.237 13.4961 136.465 13.7571C136.691 14.0181 137.01 14.1471 137.42 14.1471C137.553 14.1471 137.685 14.1391 137.817 14.1241C137.951 14.1061 138.057 14.0991 138.134 14.0991C138.266 14.0991 138.373 14.1511 138.45 14.2561C138.527 14.3621 138.566 14.5081 138.566 14.6961C138.566 14.9741 138.459 15.1681 138.242 15.2791C138.026 15.3891 137.646 15.4451 137.104 15.4451C136.262 15.4451 135.608 15.2121 135.143 14.7471C134.678 14.2801 134.445 13.6271 134.445 12.7841C134.445 12.6071 134.451 12.4691 134.463 12.3681L134.762 8.51211H133.781C133.559 8.51211 133.388 8.45611 133.266 8.34511C133.144 8.23511 133.083 8.07911 133.083 7.87911C133.083 7.66911 133.15 7.50611 133.283 7.38911C133.416 7.27311 133.609 7.21411 133.863 7.21411H134.861L134.993 5.48511C135.016 5.25311 135.11 5.06511 135.277 4.91911C135.443 4.77611 135.647 4.70411 135.892 4.70411C136.146 4.70411 136.344 4.77611 136.489 4.91911C136.634 5.06511 136.693 5.25911 136.672 5.50211L136.538 7.21411H138.184C138.394 7.21411 138.56 7.27011 138.684 7.38011C138.804 7.49111 138.864 7.64011 138.864 7.83011C138.864 8.28511 138.61 8.51211 138.101 8.51211H136.439L136.14 12.3191ZM150.935 7.73011C151.405 8.20711 151.641 8.91011 151.641 9.84211C151.641 10.0641 151.636 10.2301 151.624 10.3411L151.292 14.6131C151.269 14.8681 151.178 15.0651 151.018 15.2041C150.858 15.3421 150.651 15.4121 150.395 15.4121C150.141 15.4121 149.941 15.3421 149.797 15.2041C149.653 15.0651 149.592 14.8681 149.614 14.6141L149.948 10.4241C149.957 10.3461 149.963 10.2301 149.963 10.0741C149.963 8.94411 149.421 8.37811 148.336 8.37811C147.648 8.37811 147.103 8.58311 146.699 8.99311C146.294 9.40311 146.065 9.97511 146.009 10.7061L145.693 14.6131C145.671 14.8681 145.58 15.0651 145.42 15.2041C145.258 15.3421 145.05 15.4121 144.796 15.4121C144.542 15.4121 144.344 15.3421 144.206 15.2041C144.068 15.0651 144.004 14.8681 144.016 14.6141L144.564 7.81411C144.575 7.58111 144.669 7.39411 144.847 7.25611C145.024 7.11711 145.234 7.04811 145.477 7.04811C145.709 7.04811 145.893 7.11511 146.026 7.24811C146.159 7.38111 146.219 7.56411 146.209 7.79611L146.159 8.37811C146.436 7.94611 146.809 7.61111 147.281 7.37311C147.751 7.13411 148.281 7.01511 148.867 7.01511C149.775 7.01511 150.465 7.25311 150.935 7.73011ZM158.97 13.2501C159.381 12.6741 159.586 11.8991 159.586 10.9221C159.586 10.0911 159.394 9.45611 159.012 9.01811C158.632 8.58111 158.084 8.36211 157.376 8.36211C156.6 8.36211 156.008 8.65011 155.597 9.22611C155.189 9.80311 154.983 10.5791 154.983 11.5541C154.983 12.3971 155.174 13.0341 155.556 13.4671C155.939 13.8981 156.49 14.1151 157.209 14.1151C157.974 14.1151 158.561 13.8261 158.971 13.2501H158.97ZM155.133 14.9631C154.547 14.6421 154.091 14.1821 153.77 13.5831C153.45 12.9831 153.29 12.2921 153.29 11.5041C153.29 10.5941 153.458 9.80411 153.795 9.12711C154.134 8.45111 154.609 7.93011 155.225 7.56411C155.84 7.19811 156.551 7.01511 157.36 7.01511C158.157 7.01511 158.85 7.17811 159.435 7.50511C160.023 7.83311 160.477 8.29311 160.798 8.88511C161.12 9.47811 161.28 10.1751 161.28 10.9721C161.28 11.8811 161.112 12.6721 160.774 13.3421C160.435 14.0121 159.959 14.5311 159.344 14.8961C158.73 15.2621 158.013 15.4451 157.193 15.4451C156.407 15.4451 155.72 15.2841 155.133 14.9631ZM169.704 7.73011C170.174 8.20711 170.41 8.91011 170.41 9.84211C170.41 10.0641 170.404 10.2301 170.393 10.3411L170.061 14.6131C170.038 14.8681 169.946 15.0651 169.787 15.2041C169.627 15.3421 169.418 15.4121 169.163 15.4121C168.909 15.4121 168.71 15.3421 168.565 15.2041C168.421 15.0651 168.361 14.8681 168.382 14.6141L168.715 10.4241C168.725 10.3461 168.731 10.2301 168.731 10.0741C168.731 8.94411 168.189 8.37811 167.104 8.37811C166.417 8.37811 165.872 8.58311 165.467 8.99311C165.062 9.40311 164.834 9.97511 164.777 10.7061L164.462 14.6131C164.44 14.8681 164.348 15.0651 164.188 15.2041C164.028 15.3421 163.819 15.4121 163.564 15.4121C163.309 15.4121 163.113 15.3421 162.975 15.2041C162.836 15.0651 162.772 14.8681 162.784 14.6141L163.331 7.81411C163.343 7.58111 163.438 7.39411 163.614 7.25611C163.792 7.11711 164.002 7.04811 164.245 7.04811C164.478 7.04811 164.661 7.11511 164.795 7.24811C164.928 7.38111 164.988 7.56411 164.977 7.79611L164.927 8.37811C165.203 7.94611 165.578 7.61111 166.048 7.37311C166.518 7.13411 167.048 7.01511 167.635 7.01511C168.543 7.01511 169.233 7.25311 169.704 7.73011ZM178.165 13.2841C178.58 12.7291 178.787 11.9641 178.787 10.9891C178.787 10.1471 178.593 9.49811 178.206 9.04311C177.818 8.58911 177.266 8.36211 176.545 8.36211C175.815 8.36211 175.238 8.64211 174.817 9.20111C174.397 9.76111 174.186 10.5241 174.186 11.4871C174.186 12.3421 174.38 12.9931 174.768 13.4411C175.155 13.8911 175.708 14.1151 176.428 14.1151C177.171 14.1151 177.75 13.8381 178.165 13.2841ZM178.846 7.49711C179.372 7.81911 179.779 8.27611 180.066 8.86911C180.356 9.46211 180.499 10.1521 180.499 10.9391C180.499 11.8261 180.338 12.6101 180.017 13.2921C179.697 13.9741 179.244 14.5041 178.663 14.8801C178.081 15.2561 177.413 15.4441 176.662 15.4441C176.031 15.4441 175.484 15.3121 175.025 15.0461C174.566 14.7801 174.213 14.4031 173.97 13.9151L173.92 14.6131C173.909 14.8681 173.821 15.0651 173.654 15.2041C173.488 15.3421 173.282 15.4121 173.04 15.4121C172.795 15.4121 172.602 15.3421 172.458 15.2041C172.313 15.0651 172.248 14.8681 172.258 14.6141L173.089 4.28811C173.1 4.05511 173.194 3.86811 173.372 3.72311C173.549 3.57911 173.76 3.50611 174.003 3.50611C174.246 3.50611 174.438 3.57311 174.575 3.70611C174.715 3.83911 174.778 4.02211 174.768 4.25511L174.435 8.32811C174.711 7.91811 175.08 7.59811 175.54 7.36411C176 7.13111 176.5 7.01511 177.043 7.01511C177.719 7.01511 178.319 7.17611 178.846 7.49711ZM186.46 13.5831C186.859 13.1731 187.085 12.6461 187.14 12.0031L187.175 11.5381H186.709C185.889 11.5381 185.247 11.5821 184.782 11.6711C184.316 11.7591 183.985 11.9041 183.785 12.1021C183.585 12.3021 183.485 12.5801 183.485 12.9341C183.485 13.3221 183.621 13.6301 183.893 13.8571C184.165 14.0841 184.533 14.1971 184.998 14.1971C185.573 14.1971 186.061 13.9931 186.461 13.5831H186.46ZM188.903 9.87511C188.903 10.0851 188.897 10.2471 188.885 10.3571L188.555 14.6471C188.542 14.8911 188.462 15.0791 188.312 15.2131C188.162 15.3451 187.966 15.4131 187.722 15.4131C187.479 15.4131 187.285 15.3371 187.141 15.1871C186.998 15.0371 186.936 14.8461 186.959 14.6131L186.991 14.0481C186.759 14.5031 186.439 14.8481 186.028 15.0871C185.618 15.3251 185.141 15.4451 184.6 15.4451C183.79 15.4451 183.123 15.2261 182.598 14.7881C182.071 14.3501 181.809 13.7881 181.809 13.1011C181.809 12.4801 181.968 11.9891 182.291 11.6291C182.611 11.2691 183.123 11.0061 183.827 10.8391C184.53 10.6731 185.475 10.5891 186.659 10.5891H187.258L187.291 10.1741C187.335 9.54211 187.223 9.08011 186.959 8.78611C186.694 8.49211 186.261 8.34511 185.663 8.34511C184.931 8.34511 184.123 8.59011 183.237 9.07711C183.137 9.13211 183.027 9.16011 182.905 9.16011C182.739 9.16011 182.601 9.09911 182.489 8.97711C182.379 8.85511 182.323 8.71111 182.323 8.54511C182.323 8.27911 182.462 8.05711 182.739 7.88011C183.137 7.61411 183.61 7.40311 184.159 7.24711C184.707 7.09211 185.264 7.01511 185.829 7.01511C187.877 7.01511 188.903 7.96911 188.903 9.87511ZM197.68 7.73011C198.15 8.20711 198.386 8.91011 198.386 9.84211C198.386 10.0641 198.38 10.2301 198.369 10.3411L198.037 14.6131C198.014 14.8681 197.923 15.0651 197.762 15.2041C197.602 15.3421 197.395 15.4121 197.139 15.4121C196.885 15.4121 196.685 15.3421 196.542 15.2041C196.397 15.0651 196.336 14.8681 196.358 14.6141L196.691 10.4241C196.701 10.3461 196.707 10.2301 196.707 10.0741C196.707 8.94411 196.165 8.37811 195.079 8.37811C194.393 8.37811 193.847 8.58311 193.442 8.99311C193.039 9.40311 192.808 9.97511 192.753 10.7061L192.438 14.6131C192.416 14.8681 192.325 15.0651 192.164 15.2041C192.002 15.3421 191.795 15.4121 191.541 15.4121C191.286 15.4121 191.089 15.3421 190.951 15.2041C190.813 15.0651 190.748 14.8681 190.76 14.6141L191.308 7.81411C191.318 7.58111 191.413 7.39411 191.59 7.25611C191.768 7.11711 191.978 7.04811 192.221 7.04811C192.454 7.04811 192.637 7.11511 192.77 7.24811C192.903 7.38111 192.963 7.56411 192.954 7.79611L192.904 8.37811C193.179 7.94611 193.554 7.61111 194.024 7.37311C194.495 7.13411 195.024 7.01511 195.612 7.01511C196.52 7.01511 197.209 7.25311 197.68 7.73011ZM207.013 14.1481C207.146 14.2801 207.213 14.4411 207.213 14.6301C207.213 14.8301 207.126 15.0121 206.955 15.1791C206.782 15.3461 206.593 15.4291 206.382 15.4291C206.182 15.4291 206.005 15.3461 205.85 15.1791L202.178 11.5371L201.928 14.6301C201.906 14.8861 201.812 15.0801 201.647 15.2121C201.481 15.3461 201.282 15.4121 201.049 15.4121C200.805 15.4121 200.605 15.3401 200.451 15.1951C200.295 15.0511 200.229 14.8521 200.251 14.5971L201.066 4.30511C201.076 4.05011 201.17 3.85611 201.346 3.72211C201.524 3.59011 201.729 3.52211 201.962 3.52211C202.206 3.52211 202.4 3.59211 202.544 3.73111C202.687 3.87011 202.755 4.07111 202.742 4.33811L202.229 10.8381L206.149 7.33011C206.304 7.17611 206.481 7.09811 206.681 7.09811C206.881 7.09811 207.054 7.17311 207.205 7.32311C207.354 7.47311 207.428 7.64111 207.428 7.83011C207.428 8.02911 207.345 8.20611 207.179 8.36211L204.022 11.1391L207.013 14.1481ZM219.78 3.65111C219.872 3.74311 219.91 3.86911 219.894 4.03111L219.584 7.92911C219.561 8.28111 219.393 8.45811 219.078 8.45811C218.933 8.45811 218.822 8.41411 218.746 8.32611C218.67 8.23711 218.637 8.10611 218.654 7.92911L218.848 5.44511L217.712 7.36511C217.635 7.48811 217.558 7.57711 217.482 7.63011C217.405 7.68311 217.312 7.71011 217.205 7.71011C217.106 7.71011 217.023 7.68311 216.959 7.63011C216.893 7.57611 216.834 7.48811 216.781 7.36511L215.93 5.51411L215.735 7.92911C215.727 8.10611 215.677 8.23711 215.585 8.32611C215.493 8.41411 215.371 8.45811 215.218 8.45811C215.072 8.45811 214.961 8.41411 214.884 8.32611C214.808 8.23711 214.774 8.10611 214.782 7.92911L215.092 4.03011C215.107 3.87011 215.166 3.74311 215.27 3.65011C215.373 3.55911 215.493 3.51311 215.631 3.51311C215.831 3.51311 215.983 3.63211 216.091 3.86911L217.286 6.56011L218.906 3.87011C219.052 3.63211 219.229 3.51311 219.436 3.51311C219.573 3.51311 219.687 3.55911 219.779 3.65111H219.78ZM214.493 3.97311C214.493 4.28011 214.313 4.43311 213.954 4.43311H212.828L212.551 7.94011C212.544 8.10111 212.486 8.22811 212.374 8.32011C212.264 8.41211 212.13 8.45811 211.977 8.45811C211.824 8.45811 211.7 8.41211 211.604 8.32011C211.508 8.22811 211.464 8.10111 211.472 7.94011L211.758 4.43311H210.645C210.33 4.43311 210.174 4.29511 210.174 4.01911C210.174 3.71211 210.349 3.55911 210.702 3.55911H214.022C214.337 3.55911 214.493 3.69711 214.493 3.97311Z" fill="#AAAAAA"/>
</svg>
